<svg xmlns="http://www.w3.org/2000/svg" width="200" height="200" viewBox="0 0 200 200">
  <defs>
    <!-- Combined path for 2x2 interlocking puzzle piece grid -->
    <path id="puzzle-grid" d="
      M 0,0 L 36,0 C 39,0 41,-4 43,-8 C 37,-24 63,-24 57,-8 C 59,-4 61,0 64,0 L 100,0 
      L 136,0 C 139,0 141,4 143,8 C 137,24 163,24 157,8 C 159,4 161,0 164,0 L 200,0

      M 0,100 L 36,100 C 39,100 41,104 43,108 C 37,124 63,124 57,108 C 59,104 61,100 64,100 L 100,100 
      L 136,100 C 139,100 141,96 143,92 C 137,76 163,76 157,92 C 159,96 161,100 164,100 L 200,100

      M 0,200 L 36,200 C 39,200 41,196 43,192 C 37,176 63,176 57,192 C 59,196 61,200 64,200 L 100,200 
      L 136,200 C 139,200 141,204 143,208 C 137,224 163,224 157,208 C 159,204 161,200 164,200 L 200,200

      M 0,0 L 0,36 C 0,39 4,41 8,43 C 24,37 24,63 8,57 C 4,59 0,61 0,64 L 0,100 
      L 0,136 C 0,139 -4,141 -8,143 C -24,137 -24,163 -8,157 C -4,159 0,161 0,164 L 0,200

      M 100,0 L 100,36 C 100,39 96,41 92,43 C 76,37 76,63 92,57 C 96,59 100,61 100,64 L 100,100 
      L 100,136 C 100,139 104,141 108,143 C 124,137 124,163 108,157 C 104,159 100,161 100,164 L 100,200

      M 200,0 L 200,36 C 200,39 204,41 208,43 C 224,37 224,63 208,57 C 204,59 200,61 200,64 L 200,100 
      L 200,136 C 200,139 196,141 192,143 C 176,137 176,163 192,157 C 196,159 200,161 200,164 L 200,200
    "/>
  </defs>

  <!-- Debossed subtle highlight offset -->
  <use href="#puzzle-grid" fill="none" stroke="#ffffff" stroke-width="1.6" stroke-opacity="0.8" transform="translate(1, 1)" />

  <!-- Primary Pine Green tactile outline -->
  <use href="#puzzle-grid" fill="none" stroke="#064e3b" stroke-width="1.3" stroke-opacity="0.20" stroke-linecap="round" stroke-linejoin="round" />
</svg>
